HIERARCHY
ROOT Hips
{
	OFFSET 0.000000 97.167313 0.000000
	CHANNELS 6 Xposition Yposition Zposition Xrotation Yrotation Zrotation
	JOINT Spine
	{
		OFFSET 0.000000 13.784798 0.064400
		CHANNELS 3 Xrotation Yrotation Zrotation
		JOINT Spine1
		{
			OFFSET 0.000000 12.037903 0.404700
			CHANNELS 3 Xrotation Yrotation Zrotation
			JOINT Spine2
			{
				OFFSET 0.000000 17.795601 0.420200
				CHANNELS 3 Xrotation Yrotation Zrotation
				JOINT Neck
				{
					OFFSET 0.000000 39.131302 11.954600
					CHANNELS 3 Xrotation Yrotation Zrotation
					JOINT Head
					{
						OFFSET 0.000000 14.456192 15.627699
						CHANNELS 3 Xrotation Yrotation Zrotation
						JOINT HeadTop_End
						{
							OFFSET 0.000000 15.703506 7.603401
							CHANNELS 3 Xrotation Yrotation Zrotation
							End Site
							{
								OFFSET 0.000000 17.447403 0.000000
							}
						}
					}
				}
				JOINT LeftShoulder
				{
					OFFSET 17.399500 24.608795 1.168800
					CHANNELS 3 Xrotation Yrotation Zrotation
					JOINT LeftArm
					{
						OFFSET 18.980635 5.765305 1.818600
						CHANNELS 3 Xrotation Yrotation Zrotation
						JOINT LeftForeArm
						{
							OFFSET 49.290169 0.000000 0.000000
							CHANNELS 3 Xrotation Yrotation Zrotation
							JOINT LeftHand
							{
								OFFSET 31.562012 0.000000 0.000000
								CHANNELS 3 Xrotation Yrotation Zrotation
								JOINT LeftHandThumb1
								{
									OFFSET 6.133995 -4.388519 7.076070
									CHANNELS 3 Xrotation Yrotation Zrotation
									JOINT LeftHandThumb2
									{
										OFFSET 6.037666 -3.485840 3.485847
										CHANNELS 3 Xrotation Yrotation Zrotation
										JOINT LeftHandThumb3
										{
											OFFSET 6.496506 -3.750763 3.750761
											CHANNELS 3 Xrotation Yrotation Zrotation
											JOINT LeftHandThumb4
											{
												OFFSET 5.616882 -3.242905 3.242910
												CHANNELS 3 Xrotation Yrotation Zrotation
												End Site
												{
													OFFSET -1.254608 7.132141 0.375429
												}
											}
										}
									}
								}
								JOINT LeftHandPinky1
								{
									OFFSET 18.920792 -0.453171 -11.426712
									CHANNELS 3 Xrotation Yrotation Zrotation
									JOINT LeftHandPinky2
									{
										OFFSET 4.919586 0.000000 0.000000
										CHANNELS 3 Xrotation Yrotation Zrotation
										JOINT LeftHandPinky3
										{
											OFFSET 5.233047 0.000000 0.000000
											CHANNELS 3 Xrotation Yrotation Zrotation
											JOINT LeftHandPinky4
											{
												OFFSET 5.571716 0.000000 0.000000
												CHANNELS 3 Xrotation Yrotation Zrotation
												End Site
												{
													OFFSET -3.459808 4.342407 -0.466164
												}
											}
										}
									}
								}
								JOINT LeftHandRing1
								{
									OFFSET 22.726120 -0.094986 -6.500475
									CHANNELS 3 Xrotation Yrotation Zrotation
									JOINT LeftHandRing2
									{
										OFFSET 6.408615 0.000000 0.000000
										CHANNELS 3 Xrotation Yrotation Zrotation
										JOINT LeftHandRing3
										{
											OFFSET 6.150223 0.000000 0.000000
											CHANNELS 3 Xrotation Yrotation Zrotation
											JOINT LeftHandRing4
											{
												OFFSET 6.145386 0.000000 0.000000
												CHANNELS 3 Xrotation Yrotation Zrotation
												End Site
												{
													OFFSET -3.671402 4.923981 -0.202372
												}
											}
										}
									}
								}
								JOINT LeftHandMiddle1
								{
									OFFSET 23.373947 0.000000 0.000001
									CHANNELS 3 Xrotation Yrotation Zrotation
									JOINT LeftHandMiddle2
									{
										OFFSET 6.996567 0.000000 0.000000
										CHANNELS 3 Xrotation Yrotation Zrotation
										JOINT LeftHandMiddle3
										{
											OFFSET 7.015945 0.000000 0.000000
											CHANNELS 3 Xrotation Yrotation Zrotation
											JOINT LeftHandMiddle4
											{
												OFFSET 7.721573 0.000000 0.000000
												CHANNELS 3 Xrotation Yrotation Zrotation
												End Site
												{
													OFFSET -4.651108 6.158463 0.251582
												}
											}
										}
									}
								}
								JOINT LeftHandIndex1
								{
									OFFSET 21.310577 -0.490082 6.209344
									CHANNELS 3 Xrotation Yrotation Zrotation
									JOINT LeftHandIndex2
									{
										OFFSET 7.536453 0.000000 0.000000
										CHANNELS 3 Xrotation Yrotation Zrotation
										JOINT LeftHandIndex3
										{
											OFFSET 7.512344 0.000000 0.000000
											CHANNELS 3 Xrotation Yrotation Zrotation
											JOINT LeftHandIndex4
											{
												OFFSET 10.212402 0.000000 0.000001
												CHANNELS 3 Xrotation Yrotation Zrotation
												End Site
												{
													OFFSET -5.180801 8.690506 1.388433
												}
											}
										}
									}
								}
							}
						}
					}
				}
				JOINT RightShoulder
				{
					OFFSET -17.399500 24.608795 1.168800
					CHANNELS 3 Xrotation Yrotation Zrotation
					JOINT RightArm
					{
						OFFSET -18.980635 5.765305 1.818600
						CHANNELS 3 Xrotation Yrotation Zrotation
						JOINT RightForeArm
						{
							OFFSET -49.290169 0.000000 0.000000
							CHANNELS 3 Xrotation Yrotation Zrotation
							JOINT RightHand
							{
								OFFSET -31.562012 0.000000 0.000000
								CHANNELS 3 Xrotation Yrotation Zrotation
								JOINT RightHandThumb1
								{
									OFFSET -6.133995 -4.388519 7.076070
									CHANNELS 3 Xrotation Yrotation Zrotation
									JOINT RightHandThumb2
									{
										OFFSET -6.037666 -3.485840 3.485847
										CHANNELS 3 Xrotation Yrotation Zrotation
										JOINT RightHandThumb3
										{
											OFFSET -6.496506 -3.750763 3.750761
											CHANNELS 3 Xrotation Yrotation Zrotation
											JOINT RightHandThumb4
											{
												OFFSET -5.616882 -3.242905 3.242910
												CHANNELS 3 Xrotation Yrotation Zrotation
												End Site
												{
													OFFSET 1.254608 7.132141 0.375429
												}
											}
										}
									}
								}
								JOINT RightHandIndex1
								{
									OFFSET -21.310577 -0.490082 6.209344
									CHANNELS 3 Xrotation Yrotation Zrotation
									JOINT RightHandIndex2
									{
										OFFSET -7.536453 0.000000 0.000000
										CHANNELS 3 Xrotation Yrotation Zrotation
										JOINT RightHandIndex3
										{
											OFFSET -7.512344 0.000000 0.000000
											CHANNELS 3 Xrotation Yrotation Zrotation
											JOINT RightHandIndex4
											{
												OFFSET -10.212402 0.000000 0.000001
												CHANNELS 3 Xrotation Yrotation Zrotation
												End Site
												{
													OFFSET 5.180801 8.690506 1.388433
												}
											}
										}
									}
								}
								JOINT RightHandMiddle1
								{
									OFFSET -23.373947 0.000000 0.000001
									CHANNELS 3 Xrotation Yrotation Zrotation
									JOINT RightHandMiddle2
									{
										OFFSET -6.996567 0.000000 0.000000
										CHANNELS 3 Xrotation Yrotation Zrotation
										JOINT RightHandMiddle3
										{
											OFFSET -7.015945 0.000000 0.000000
											CHANNELS 3 Xrotation Yrotation Zrotation
											JOINT RightHandMiddle4
											{
												OFFSET -7.721573 0.000000 0.000000
												CHANNELS 3 Xrotation Yrotation Zrotation
												End Site
												{
													OFFSET 4.651108 6.158463 0.251582
												}
											}
										}
									}
								}
								JOINT RightHandRing1
								{
									OFFSET -22.726120 -0.094986 -6.500475
									CHANNELS 3 Xrotation Yrotation Zrotation
									JOINT RightHandRing2
									{
										OFFSET -6.408615 0.000000 0.000000
										CHANNELS 3 Xrotation Yrotation Zrotation
										JOINT RightHandRing3
										{
											OFFSET -6.150223 0.000000 0.000000
											CHANNELS 3 Xrotation Yrotation Zrotation
											JOINT RightHandRing4
											{
												OFFSET -6.145386 0.000000 0.000000
												CHANNELS 3 Xrotation Yrotation Zrotation
												End Site
												{
													OFFSET 3.671402 4.923981 -0.202372
												}
											}
										}
									}
								}
								JOINT RightHandPinky1
								{
									OFFSET -18.920792 -0.453171 -11.426712
									CHANNELS 3 Xrotation Yrotation Zrotation
									JOINT RightHandPinky2
									{
										OFFSET -4.919586 0.000000 0.000000
										CHANNELS 3 Xrotation Yrotation Zrotation
										JOINT RightHandPinky3
										{
											OFFSET -5.233047 0.000000 0.000000
											CHANNELS 3 Xrotation Yrotation Zrotation
											JOINT RightHandPinky4
											{
												OFFSET -5.571716 0.000000 0.000000
												CHANNELS 3 Xrotation Yrotation Zrotation
												End Site
												{
													OFFSET 3.459808 4.342407 -0.466164
												}
											}
										}
									}
								}
							}
						}
					}
				}
			}
		}
	}
	JOINT LeftUpLeg
	{
		OFFSET 19.899099 -7.885101 -3.429500
		CHANNELS 3 Xrotation Yrotation Zrotation
		JOINT LeftLeg
		{
			OFFSET 1.745560 -36.997807 10.304700
			CHANNELS 3 Xrotation Yrotation Zrotation
			JOINT LeftFoot
			{
				OFFSET -1.745558 -29.803308 -13.615400
				CHANNELS 3 Xrotation Yrotation Zrotation
				JOINT LeftToeBase
				{
					OFFSET 1.181900 -18.539904 15.226099
					CHANNELS 3 Xrotation Yrotation Zrotation
					JOINT LeftToe_End
					{
						OFFSET -0.863701 1.402801 16.534700
						CHANNELS 3 Xrotation Yrotation Zrotation
						End Site
						{
							OFFSET 0.000000 16.616566 0.000000
						}
					}
				}
			}
		}
	}
	JOINT RightUpLeg
	{
		OFFSET -19.899099 -7.885101 -3.429500
		CHANNELS 3 Xrotation Yrotation Zrotation
		JOINT RightLeg
		{
			OFFSET -1.745560 -36.997807 10.304700
			CHANNELS 3 Xrotation Yrotation Zrotation
			JOINT RightFoot
			{
				OFFSET 1.745558 -29.803308 -13.615400
				CHANNELS 3 Xrotation Yrotation Zrotation
				JOINT RightToeBase
				{
					OFFSET -1.181900 -18.539904 15.226099
					CHANNELS 3 Xrotation Yrotation Zrotation
					JOINT RightToe_End
					{
						OFFSET 0.863701 1.402801 16.534700
						CHANNELS 3 Xrotation Yrotation Zrotation
						End Site
						{
							OFFSET 0.000000 16.616566 0.000000
						}
					}
				}
			}
		}
	}
}
MOTION
Frames: 4
Frame Time: 0.033333
-3.291233 71.767250 2.096147 11.715313 -49.552312 11.573120 10.987093 2.848545 -2.326016 6.100719 5.566531 -4.284681 -5.786906 6.328148 -3.046188 2.318772 9.363364 -0.265549 -4.146719 23.161889 -3.523137 -0.000000 -0.000000 -0.000000 -1.878324 -16.206695 -2.875582 -10.643392 2.188586 -45.501733 -22.862421 -25.786235 -15.871707 2.491078 -2.511845 6.860519 18.457968 -9.513793 13.216577 -1.150183 11.255333 -8.400837 5.706538 8.483080 -0.820751 0.000003 0.000001 -0.000002 2.010409 6.305975 -22.386500 -0.815385 -0.210773 -16.746481 -2.232627 0.018956 -34.673821 0.000001 -0.000000 -0.000007 3.024642 7.938942 -14.103454 -0.707999 -0.566228 -18.895718 -0.726368 -0.705023 -22.058439 0.000000 -0.000002 0.000003 1.884726 4.663369 -4.597413 0.476701 -1.009810 -12.986386 0.628512 -1.346622 -16.554044 -0.000001 0.000000 0.000004 -1.232788 -5.771909 -0.192314 0.133970 -0.197690 -4.602121 0.055750 -0.448188 -7.568205 -0.000004 0.000001 0.000001 -5.077635 24.383463 1.487652 6.644695 -34.773675 57.611505 -21.032026 44.833809 19.961694 -0.087214 35.608467 7.474282 55.149556 18.649560 -29.698291 -0.442509 -14.180580 7.313159 21.666945 -29.244520 9.142365 -0.000001 0.000000 0.000001 5.673418 7.585037 36.844161 1.050478 3.824485 68.900264 0.499576 3.026042 62.196447 -0.000002 0.000000 0.000001 -0.125672 1.886095 45.000756 -1.169013 3.204676 68.417663 -0.936399 1.813637 41.107548 -0.000002 0.000000 -0.000008 -5.311992 1.216636 58.508821 -0.745185 1.667563 48.011285 -0.816489 1.840648 53.666545 -0.000002 0.000001 0.000000 -7.756800 -9.376452 47.263987 -0.526035 1.541581 45.600556 -0.508194 0.803424 24.986625 -0.000000 -0.000000 0.000006 -67.366306 23.100398 46.058496 44.372648 -22.217972 2.151774 7.292904 2.062688 -14.543609 -0.694665 -6.107051 1.234576 0.000000 0.000000 0.000000 -26.334634 0.642698 -35.036101 51.313739 9.953706 -3.034983 -31.274080 -8.054227 28.067747 0.528324 2.970094 1.471351 -0.000000 0.000002 -0.000000 
-3.220497 71.636665 2.001565 11.785500 -49.961673 11.584359 11.180855 2.817982 -2.325134 6.228487 5.574559 -4.197044 -5.652306 6.317373 -2.987959 2.669053 9.613533 -0.671357 -4.410591 23.109954 -3.078436 -0.000001 0.000000 0.000000 -2.040520 -15.791010 -3.347629 -11.231496 1.621104 -45.200256 -22.682305 -25.018126 -15.302772 2.376474 -3.509992 6.337733 18.457972 -9.513761 13.216607 -1.150184 11.255294 -8.400860 5.706522 8.483083 -0.820731 0.000003 -0.000000 0.000001 2.010400 6.305955 -22.386526 -0.815388 -0.210782 -16.746502 -2.232636 0.018992 -34.673807 0.000003 -0.000004 -0.000004 3.024626 7.938925 -14.103466 -0.708020 -0.566198 -18.895732 -0.726366 -0.705042 -22.058439 -0.000001 -0.000000 0.000005 1.884721 4.663382 -4.597391 0.476680 -1.009825 -12.986388 0.628537 -1.346623 -16.554032 0.000002 -0.000003 0.000004 -1.232775 -5.771953 -0.192330 0.133961 -0.197651 -4.602102 0.055742 -0.448180 -7.568184 -0.000003 0.000001 0.000002 -5.385736 24.018394 2.097314 6.390807 -34.837902 56.604459 -21.902468 47.228422 21.291267 0.028251 33.044247 6.853494 55.149556 18.649553 -29.698291 -0.442508 -14.180584 7.313157 21.666945 -29.244514 9.142364 -0.000000 -0.000001 0.000001 5.673413 7.585033 36.844165 1.050477 3.824483 68.900264 0.499580 3.026038 62.196454 -0.000001 0.000000 0.000001 -0.125678 1.886092 45.000749 -1.169015 3.204669 68.417670 -0.936397 1.813634 41.107541 0.000001 0.000003 -0.000006 -5.311997 1.216636 58.508821 -0.745185 1.667565 48.011281 -0.816488 1.840645 53.666545 -0.000001 0.000000 -0.000007 -7.756801 -9.376453 47.263987 -0.526036 1.541586 45.600556 -0.508194 0.803422 24.986627 0.000000 0.000001 -0.000001 -67.360050 22.843489 46.367180 44.694183 -22.138721 2.159858 7.103661 2.264475 -14.710296 -0.670687 -6.047727 1.197788 0.000000 0.000000 -0.000000 -26.878512 0.912260 -34.889105 51.643877 10.162994 -3.087852 -31.158544 -7.851775 27.965062 0.528344 2.911843 1.471338 -0.000000 0.000001 -0.000000 
-3.151937 71.500290 1.905701 11.839146 -50.357356 11.611226 11.367165 2.785397 -2.326421 6.401414 5.567586 -4.117679 -5.475571 6.291721 -2.924162 2.665424 9.801276 -1.065488 -4.491039 22.998043 -2.637293 0.000001 0.000000 0.000000 -2.201372 -15.367268 -3.919083 -11.912712 0.893029 -44.817458 -22.506891 -24.328459 -14.671323 2.189478 -4.298072 5.851445 18.457977 -9.513775 13.216594 -1.150188 11.255301 -8.400866 5.706530 8.483127 -0.820738 0.000003 -0.000000 -0.000002 2.010420 6.305962 -22.386538 -0.815392 -0.210775 -16.746464 -2.232628 0.019008 -34.673838 -0.000005 -0.000000 0.000003 3.024634 7.938946 -14.103466 -0.708004 -0.566212 -18.895742 -0.726395 -0.705031 -22.058419 -0.000003 -0.000002 0.000001 1.884748 4.663395 -4.597391 0.476701 -1.009867 -12.986419 0.628509 -1.346603 -16.554015 -0.000001 -0.000004 0.000004 -1.232792 -5.771915 -0.192346 0.133966 -0.197660 -4.602099 0.055734 -0.448200 -7.568218 -0.000001 0.000003 0.000001 -5.584740 23.794578 2.621165 5.662284 -34.769467 55.651159 -22.517122 48.955114 22.109486 0.205831 30.839018 6.321523 55.149560 18.649557 -29.698284 -0.442507 -14.180584 7.313159 21.666945 -29.244517 9.142362 -0.000000 -0.000001 0.000001 5.673415 7.585032 36.844161 1.050476 3.824483 68.900257 0.499582 3.026039 62.196454 -0.000002 -0.000001 0.000001 -0.125678 1.886098 45.000749 -1.169014 3.204671 68.417670 -0.936396 1.813633 41.107545 0.000001 0.000001 -0.000008 -5.311994 1.216635 58.508821 -0.745186 1.667564 48.011285 -0.816486 1.840647 53.666545 0.000000 -0.000002 -0.000002 -7.756800 -9.376451 47.263994 -0.526032 1.541586 45.600556 -0.508195 0.803424 24.986623 0.000001 -0.000001 0.000004 -67.339368 22.623390 46.648051 45.009758 -22.059225 2.192500 6.920324 2.459163 -14.888467 -0.636302 -6.037332 1.143669 -0.000000 -0.000001 0.000000 -27.328926 1.287098 -34.783326 51.974820 10.352493 -3.051092 -31.072740 -7.701703 27.851705 0.494273 2.842633 1.471333 -0.000000 0.000001 -0.000000 
-3.086173 71.360733 1.810822 11.883569 -50.740721 11.664989 11.547108 2.750825 -2.337662 6.610713 5.550437 -4.046272 -5.264212 6.258132 -2.872470 2.116530 9.843534 -1.324381 -4.343147 22.828980 -2.278322 0.000000 -0.000000 0.000000 -2.341439 -14.974867 -4.511521 -12.620847 0.064397 -44.387292 -22.330810 -23.665905 -13.951014 1.907565 -4.988416 5.348567 18.457970 -9.513760 13.216607 -1.150198 11.255308 -8.400856 5.706524 8.483094 -0.820738 0.000001 -0.000000 -0.000002 2.010422 6.305939 -22.386526 -0.815382 -0.210755 -16.746454 -2.232635 0.018989 -34.673848 0.000003 0.000003 -0.000004 3.024631 7.938930 -14.103455 -0.708011 -0.566233 -18.895742 -0.726370 -0.705019 -22.058393 0.000003 0.000001 0.000003 1.884742 4.663381 -4.597365 0.476698 -1.009815 -12.986376 0.628511 -1.346596 -16.554008 -0.000002 -0.000001 0.000001 -1.232800 -5.771927 -0.192328 0.133960 -0.197665 -4.602099 0.055742 -0.448221 -7.568205 -0.000001 0.000002 -0.000003 -5.768860 23.653550 3.167797 4.634362 -34.823429 54.846863 -22.940468 50.566353 22.496150 0.485231 28.660771 6.020717 55.149560 18.649555 -29.698284 -0.442511 -14.180589 7.313155 21.666945 -29.244524 9.142364 0.000000 -0.000001 0.000001 5.673417 7.585033 36.844158 1.050477 3.824490 68.900264 0.499585 3.026044 62.196447 -0.000000 -0.000002 -0.000006 -0.125678 1.886092 45.000759 -1.169014 3.204674 68.417663 -0.936395 1.813634 41.107548 0.000004 0.000002 -0.000001 -5.311996 1.216636 58.508828 -0.745186 1.667559 48.011285 -0.816487 1.840648 53.666548 -0.000003 0.000001 -0.000007 -7.756798 -9.376452 47.263990 -0.526034 1.541588 45.600559 -0.508197 0.803424 24.986621 0.000002 -0.000002 -0.000001 -67.270151 22.425695 46.891165 45.303180 -21.963467 2.205150 6.737769 2.655381 -15.067114 -0.632906 -6.037045 1.138045 0.000000 -0.000000 0.000000 -27.763906 1.679775 -34.714020 52.326189 10.501671 -3.028626 -30.992052 -7.569386 27.780505 0.481280 2.802882 1.471325 0.000000 0.000001 -0.000000 
